Coordinates
version=1
nRows=4
nColumns=107
inDegrees=yes

Units are S.I. units (second, meters, Newtons, ...)
If the header above contains a line with 'inDegrees', this indicates whether rotational values are in degrees (yes) or radians (no).

endheader
time	sternoclavicular_r2	sternoclavicular_r3	unrotscap_r3	unrotscap_r2	acromioclavicular_r2	acromioclavicular_r3	acromioclavicular_r1	unrothum_r1	unrothum_r3	unrothum_r2	elv_angle	shoulder_elv	shoulder1_r2	shoulder_rot	elbow_flexion	pro_sup	deviation	flexion	proximal_distal_r1	proximal_distal_r3	cmc_flexion	cmc_abduction	mp_flexion	ip_flexion	mcp2_flexion	mcp2_abduction	pm2_flexion	md2_flexion	mcp3_flexion	mcp3_abduction	pm3_flexion	md3_flexion	mcp4_flexion	mcp4_abduction	pm4_flexion	md4_flexion	mcp5_flexion	mcp5_abduction	pm5_flexion	md5_flexion	bicpt_tx	bicpt_ty	bicpt_tz	bicpt2_tx	bicpt2_ty	bicpt2_tz	ptpt_tx	ptpt_ty	ptpt_tz	FCUpt_tx	FCUpt_ty	FCUpt_tz	EDCpt_tx	EDCpt_ty	EDCpt_tz	APLpt_tx	APLpt_ty	APLpt_tz	FPLpt_tx	FPLpt_ty	FPLpt_tz	FPLpt2_tx	FPLpt2_ty	FPLpt2_tz	PEC1pt2_tx	PEC1pt2_ty	PEC1pt2_tz	PEC1pt3_tx	PEC1pt3_ty	PEC1pt3_tz	PEC2pt2_tx	PEC2pt2_ty	PEC2pt2_tz	PEC2pt3_tx	PEC2pt3_ty	PEC2pt3_tz	PEC3pt2_tx	PEC3pt2_ty	PEC3pt2_tz	PEC3pt3_tx	PEC3pt3_ty	PEC3pt3_tz	DELT2pt2a_tx	DELT2pt2a_ty	DELT2pt2a_tz	DELT2pt2_tx	DELT2pt2_ty	DELT2pt2_tz	LAT1pt2_tx	LAT1pt2_ty	LAT1pt2_tz	LAT1pt3_tx	LAT1pt3_ty	LAT1pt3_tz	LAT2pt2_tx	LAT2pt2_ty	LAT2pt2_tz	LAT2pt3_tx	LAT2pt3_ty	LAT2pt3_tz	LAT3pt2_tx	LAT3pt2_ty	LAT3pt2_tz	LAT3pt3_tx	LAT3pt3_ty	LAT3pt3_tz
      1.20000000	     -0.31492261	      0.13338635	     -0.13338635	      0.31492261	     -0.06376542	      0.51532971	      0.23163716	     -0.23163716	     -0.51532971	      0.06376542	     99.79897088	     74.56072647	     -1.74182063	    -29.52314996	     30.07790495	      9.99174014	     -0.02955940	     -0.90094417	     -0.04083046	     -0.45047208	      0.63164314	      7.68724604	     -8.61359192	     10.02371249	     13.02638610	     13.00627016	     12.92979713	    -27.37961669	     26.78430475	      5.41984831	     39.33898889	     27.57883671	     16.24763384	     -6.26185642	     56.35584258	     32.97774309	     -9.34900876	    -13.41696730	     -2.36178182	      5.12175310	      0.00089488	     -0.03104739	     -0.00485528	      0.01548829	     -0.01837081	     -0.01004217	      0.00681172	     -0.06537738	     -0.00085489	      0.00489801	     -0.18399146	      0.00016568	     -0.00119901	      0.00029851	      0.00011783	      0.00024203	      0.00009681	      0.00048407	      0.00030980	      0.00092941	      0.00052279	      0.00001635	     -0.00001557	     -0.00001868	      0.00244394	      0.00857449	      0.00596486	     -0.00799457	      0.01930296	     -0.01830882	      0.00244394	      0.00857449	      0.00596486	      0.00053849	      0.01789459	     -0.00940294	      0.00388666	      0.00476817	      0.01581590	      0.00000000	      0.00743266	      0.00000000	     -0.00700043	     -0.03235110	     -0.00612655	      0.01866511	     -0.00074085	     -0.00726802	     -0.00086988	      0.01458078	     -0.00596486	      0.00240251	      0.02104271	     -0.01739752	     -0.00584060	      0.01263391	     -0.00534352	     -0.01217826	      0.02667619	     -0.02986574	     -0.02286531	      0.01412513	     -0.00716612	     -0.01516069	      0.03081846	     -0.03732182
      1.23333333	     -0.31428077	      0.13311450	     -0.13311450	      0.31428077	     -0.06363546	      0.51427943	      0.23116506	     -0.23116506	     -0.51427943	      0.06363546	     99.99998366	     74.40876613	     -1.74532897	    -30.24218319	     30.07636935	     10.15162532	     -0.00820540	     -0.92035027	     -0.01119055	     -0.46017514	      1.53916678	      7.53642246	     -8.25420100	     10.05276109	     13.97176483	     13.05457491	     13.40534144	    -27.19876496	     24.72177347	      4.96869389	     38.10552309	     27.18480875	     13.45634368	     -6.61783975	     54.83677352	     32.53540175	     -8.17322833	    -13.48771659	     -1.78947050	      5.20938707	      0.00089483	     -0.03104721	     -0.00485526	      0.01549954	     -0.01837039	     -0.01003181	      0.00679991	     -0.06538502	     -0.00086777	      0.00491263	     -0.18398949	      0.00016094	     -0.00121819	      0.00030353	      0.00011927	      0.00023229	      0.00009292	      0.00046458	      0.00029733	      0.00089199	      0.00050174	      0.00003186	     -0.00003716	     -0.00004460	      0.00243896	      0.00855702	      0.00595271	     -0.00797828	      0.01926362	     -0.01827150	      0.00243896	      0.00855702	      0.00595271	      0.00053740	      0.01785812	     -0.00938378	      0.00388082	      0.00475845	      0.01580122	      0.00000000	      0.00740220	      0.00000000	     -0.00698616	     -0.03228516	     -0.00610125	      0.01898500	     -0.00076537	     -0.00761708	     -0.00086810	      0.01455106	     -0.00595271	      0.00239762	      0.02099983	     -0.01736206	     -0.00582869	      0.01260816	     -0.00533263	     -0.01215344	      0.02662183	     -0.02980487	     -0.02281871	      0.01409634	     -0.00715152	     -0.01512980	      0.03075565	     -0.03724575
      1.26666667	     -0.31349384	      0.13278120	     -0.13278120	      0.31349384	     -0.06347613	      0.51299172	      0.23058625	     -0.23058625	     -0.51299172	      0.06347613	    100.18589746	     74.22245372	     -1.74857377	    -31.04438033	     30.13001347	     10.32979250	      0.01969564	     -0.94501275	      0.02641228	     -0.47250638	      1.89940137	      6.96559769	     -8.26083789	      9.97089698	     14.55022567	     12.85248230	     13.78986536	    -27.06604156	     22.93705871	      4.40494084	     37.00350740	     26.82344726	     11.05249857	     -6.87461910	     53.39003719	     32.09386643	     -7.16618188	    -13.55241250	     -1.26731063	      5.27059561	      0.00089661	     -0.03105336	     -0.00485625	      0.01551200	     -0.01838497	     -0.01002022	      0.00678674	     -0.06539353	     -0.00088212	      0.00492893	     -0.18398729	      0.00015568	     -0.00123957	      0.00030914	      0.00012087	      0.00021900	      0.00008760	      0.00043799	      0.00028031	      0.00084094	      0.00047303	      0.00003582	     -0.00004548	     -0.00005458	      0.00243285	      0.00853559	      0.00593780	     -0.00795830	      0.01921538	     -0.01822575	      0.00243285	      0.00853559	      0.00593780	      0.00053605	      0.01781340	     -0.00936028	      0.00387364	      0.00474653	      0.01578314	      0.00000000	      0.00736494	      0.00000000	     -0.00696867	     -0.03220433	     -0.00607030	      0.01933370	     -0.00079290	     -0.00801391	     -0.00086593	      0.01451463	     -0.00593780	      0.00239161	      0.02094724	     -0.01731859	     -0.00581410	      0.01257659	     -0.00531928	     -0.01212301	      0.02655517	     -0.02973024	     -0.02276157	      0.01406104	     -0.00713361	     -0.01509191	      0.03067864	     -0.03715249
      1.30000000	     -0.31269161	      0.13244141	     -0.13244141	      0.31269161	     -0.06331369	      0.51167898	      0.22999618	     -0.22999618	     -0.51167898	      0.06331369	    100.32471131	     74.03251830	     -1.75099653	    -31.80818492	     30.20888938	     10.83943624	      0.05726763	     -0.97106728	      0.07503587	     -0.48553364	      2.15631130	      6.29421834	     -8.50943331	      9.77706672	     14.99225322	     12.40117023	     14.29474546	    -26.87955142	     21.48455637	      3.68829903	     35.86209612	     26.36508333	      8.73042072	     -7.09776897	     51.62164312	     31.47232628	     -6.00913928	    -13.57323674	     -0.50743911	      5.32358549	      0.00089922	     -0.03106240	     -0.00485770	      0.01554725	     -0.01840639	     -0.00998684	      0.00674909	     -0.06541788	     -0.00092317	      0.00497561	     -0.18398095	      0.00014077	     -0.00130073	      0.00032525	      0.00012533	      0.00020385	      0.00008154	      0.00040770	      0.00026093	      0.00078278	      0.00044031	      0.00003800	     -0.00005133	     -0.00006159	      0.00242662	      0.00851375	      0.00592261	     -0.00793794	      0.01916621	     -0.01817911	      0.00242662	      0.00851375	      0.00592261	      0.00053468	      0.01776782	     -0.00933633	      0.00386630	      0.00473439	      0.01576463	      0.00000000	      0.00732706	      0.00000000	     -0.00695084	     -0.03212191	     -0.00603883	      0.01965772	     -0.00081927	     -0.00839877	     -0.00086371	      0.01447748	     -0.00592261	      0.00238549	      0.02089364	     -0.01727427	     -0.00579922	      0.01254441	     -0.00530567	     -0.01209199	      0.02648721	     -0.02965416	     -0.02270332	      0.01402506	     -0.00711535	     -0.01505329	      0.03060013	     -0.03705742
